<?xml version="1.0" encoding="utf-8"?>
<!-- Generator: Adobe Illustrator 17.1.0, SVG Export Plug-In . SVG Version: 6.00 Build 0)  -->
<!DOCTYPE svg PUBLIC "-//W3C//DTD SVG 1.1//EN" "http://www.w3.org/Graphics/SVG/1.1/DTD/svg11.dtd">
<svg version="1.1" id="Layer_1" xmlns="http://www.w3.org/2000/svg" xmlns:xlink="http://www.w3.org/1999/xlink" x="0px" y="0px"
	 viewBox="0 0 980 980" style="enable-background:new 0 0 980 980;" xml:space="preserve">
<style type="text/css">
	.st0{fill:#9B0000;}
</style>
<g>
	<rect x="0" y="0" width="980" height="980"/>
	<g>
		<g>
			<g>
				<g>
					<path class="st0" d="M968.2,648.3c-3.2-21.9-7.6-43.7-13.6-65c-2.3-8.1-7.3-18-18.9-16.7c-15.5,1.7-24-11.3-16.7-26
						c4.9-10,4.3-18-1.9-26.8c-9.1-13.1-17.7-26.7-27.4-39.2c-9.4-12.1-19.1-18.4-29-0.8c-7,12.4-16.8,10.1-20.4-4.4
						c-2.7-11-9-15.7-16.9-16c-17.6-0.7-35.7-8-52.9,0.1c-8.3,3.9-13.9,0.9-10.7-9.5c5.8-19.1-6.2-28.7-15.9-39.3
						c-4.2-4.6-7.9-18.1-16.5-8.2c-5.8,6.7-14.8,15.3-2.6,26.2c4.6,4.1,4.2,7.9,1.8,12.6c-3,5.9-6.3,3-10.6,1.2
						c-19.7-8.4-15.2,11.1-14.4,19.9c1.3,15.1,23.9,29.5,36.8,25.9c14.8-4.1,27.6,7.4,25,24.6c-1.4,9.4,1.4,14.1,7.1,18.2
						c18.3,13,61.3,5.2,73.3-11.9c17.8,22.8,24.3,59.1,58.7,62.6c2.7,0.3,6.9,5.4,5.1,9.6c-8.3,19.7,1.3,38.7,5.3,57.2
						c5,22.6,10.9,42.1-9.1,58c9.6,4.7,18.5,11.7,25.8,20.4c0-1.2,0-2.3,0-3.5c-1.5-2.2-2.4-4.8-2.4-7.6v-3.7
						c0-6.9,5.3-12.6,12-13.4c0.8-7.5,5.9-13.4,15-18C964,669.9,969.9,660.2,968.2,648.3z M810.5,503.8c-9.2-2.7-21.6,3.6-26.7-10.9
						c-1.5-4.2-3-15.7,6.4-13.2c9.1,2.4,22.7-6.1,26.2,11.6C817.5,498.6,817.8,505.9,810.5,503.8z M890.7,538.3
						c-8.6-1.6-12.4-10.8-15.8-18.5c-2.2-5,2.1-8.5,7.4-9.6c8.4,2,12.6,10,15.1,18.4C898.8,533.5,895.3,539.2,890.7,538.3z
						 M939.5,638.3c-10-5-11.2-12.6-9.2-20.9c0.3-1.1,5.6-1.7,7.5-0.4C947.1,623.6,937.4,631.1,939.5,638.3z"/>
					<path class="st0" d="M711.3,321.2c9.1-12.4,12.8-21.8,6.8-33.2c-0.5-1-1.3-1.7-2.3-2.1c1.1-3.9,1.3-7.7-3.8-11.3
						c-2-1.4-7.8-0.7-8.1,0.4c-1.4,5.8-1.2,11.4,2,16C702.3,299.6,708.1,308.4,711.3,321.2z"/>
					<path class="st0" d="M673,396.8c-0.6,0.1-1.2,0.3-1.7,0.4c-2.8-6.5-7-11.9-14-13.5c-5.6,1.2-10.3,5-7.9,10.3
						c3.6,8.3,7.8,18.3,17,20c1.5,0.3,2.9-0.2,4.1-1.1c1.4,0.9,3.1,1.2,5,1.1c5.4-1.1,7.2-5,5.8-11C680.2,398.1,677,396.1,673,396.8
						z"/>
					<path class="st0" d="M654.9,317.4c-10.1-2.7-8.5,9.6-6.9,14.2c5.5,15.6,18.9,8.9,28.8,11.8c7.9,2.3,7.6-5.5,6.3-13.4
						C679.3,310.9,664.7,320,654.9,317.4z"/>
				</g>
				<g>
					<path class="st0" d="M265.6,351.3c5-7.2,5.8-14.2-0.7-19.4c-7.1-5.7-10.2,2.4-14.5,7.2c-3.1,3.5-5,13.3-12.2,5.4
						c-8.6-9.5-15.2-1.8-21.2,5.6c-8.3,10.3-16.8,20.5-24,31.6c-5.3,8.2-15.2,16.1-13.6,25.9c1.7,10.7-3.8,10.3-8.3,11.4
						c-4.4,1-10,7.8-13.4-1.9c-4.5-12.7-13.8-9-21.2-4.3c-17,11-33.9,22.6-49.9,35.5c-10.8,8.8-15,22.9-4.5,33
						c8.6,8.2,0.8,11.3-1.5,15.9c-2.7,5.1-5.2,10.3-12.2,3.8c-11.4-10.4-21.1-1.3-26.3,10.7c-9.5,21.7-18.3,43.9-22.8,67.6
						c-2.2,11.7,0.6,19.5,11.6,19.4c6.5-0.1,11.6,0.4,8.4,9.1c-2.9,7.7,8.2,18.9-7.2,23.9c-17.5,5.6-25.5,25.6-17.1,39.8
						c8.5,14.3,17.6,28.3,27.5,41.3c5.7,7.5,14.8,15.7,23,5.6c8.8-10.7,12.5-3.6,18.4,0.9c3.9,3,5.5,6,5.6,9.6
						c3.5-10.3,9.1-19.4,16.1-26.8c-0.9-0.3-1.9-1-3-2.4c-2.7-3.4-12.3-3.6-4.7-12.7c3.3-4,4.2-9.4,2.1-13.5
						c-8.8-17.1-16.5-36-30.7-47.2c-5.5-4.4-6.6-7.7-8.2-13.7c-4.2-15.7,10.6-8.7,13-14.9c11.1-28.5,29.2-55,25-88.8
						c5.8,1.9,11.4,1.9,16.9-2.1c14.5-10.4,29.2-20.4,43.7-30.9c7.9-5.7,15.5-11.5,12.3-24.7c-2.4-9.8,6.2-10.2,11-12.1
						c4.1-1.6,9.4-8,13.3,0.8c8.1,18.3,21.5,12.6,28.5,0.8c15.2-25.6,46.5-43,38.2-82C262.5,356.7,264.2,353.3,265.6,351.3z
						 M53.3,569.2c-4.5-0.4-5.4-4.5-4.6-8.9c1.3-7.6,4.7-13,12.1-12.3c4.2,0.4,5.6,4,4.9,9.3C63.3,563.1,60.9,569.9,53.3,569.2z
						 M70.5,674.2c-15.1,15.3-23.3,6.8-28.1-10.7C53.6,658.5,66.6,649.3,70.5,674.2z M123.5,469.6c-5-0.4-9.3-2.8-7.7-10
						c1.8-8.4,8.1-9.6,13.9-10.1c6-0.5,6.4,5.9,8.8,9.5C134.7,466.8,129.8,470.1,123.5,469.6z M239.3,383.5
						c-6.7,12.1-14.9,23.5-23.9,33.6c-3.1,3.4-5.3-5.2-8.4-7.8c-4.8-4.1-2.1-8.1,0.8-11.8c7.6-9.9,15.4-19.5,24.2-30.6
						C231.5,375.7,243.5,375.9,239.3,383.5z"/>
					<path class="st0" d="M334.1,209.5c-8.8,11.1-16.6,20.8-24.2,30.6c-2.9,3.7-5.6,7.7-0.8,11.8c0.3,0.3,0.6,0.6,0.9,1
						c-1.6,0.7-3.1,1.5-4.6,2.2c4.8,17.5,13,26,28.1,10.7c-1.5-9.7-4.4-14.2-8-15.8c5.8-7.5,11.2-15.5,15.8-23.8
						C345.7,218.7,333.7,218.4,334.1,209.5z"/>
					<path class="st0" d="M311.7,305.1c-5.8,0.5-12.1,1.7-13.9,10.1c-1.5,7.2,2.7,9.6,7.7,10c6.3,0.5,11.2-2.8,15-10.5
						C318.1,311,317.8,304.6,311.7,305.1z"/>
					<path class="st0" d="M280.5,281.1c1.4-3.1,2.4-6.6,3.4-9.7c2-6.3-2.4-9.6-8.3-9.1c-7.2,0.7-11.6,4.8-11.1,13.1
						c0.2,3.6,0.1,7.7,1.6,10.8c-0.6,1.6-1.1,3.3-1.4,5.2c-0.7,4.4,0.1,8.5,4.6,8.9c7.6,0.7,10-6,12.3-12
						C282.1,285.2,281.8,282.7,280.5,281.1z"/>
				</g>
				<g>
					<path class="st0" d="M709.8,758.4c0,0.9,0,1.9,0,2.8c0,63.2,0,126.4,0,189.6c0,4.3,0.5,4.3-4.3,4.3c-19.8,0-39.5,0-59.3,0
						c-3.8,0-3.8,0-3.8-3.9c0-85.5,0-171,0-256.5c0-4,0-4,3.9-4c33.4,0,66.7,0,100.1,0c3.7,0,3.7,0,4.6,3.4
						c7.8,30.2,15.6,60.4,23.3,90.6c5.4,20.9,10.8,41.8,16.2,62.7c0.2,0.6,0.2,1.3,0.8,1.8c0.5-0.8,0.6-1.7,0.8-2.5
						c10.3-40.3,20.7-80.6,31-120.8c2.7-10.5,5.4-20.9,8.1-31.4c0.2-0.7,0.4-1.4,0.5-2.1c0.3-1.1,0.9-1.7,2-1.7
						c0.7,0,1.4-0.1,2.2-0.1c33.4,0,66.7,0,100.1,0c0.3,0,0.6,0,1,0c2.4,0.1,2.7,0.3,2.7,2.8c0,0.6,0,1.3,0,1.9
						c0,85,0,169.9,0,254.9c0,1,0,2.1-0.1,3.1c0,1-0.6,1.6-1.7,1.7c-0.6,0-1.3,0-1.9,0c-20,0-40,0-60,0c-0.3,0-0.6,0-1,0
						c-2.4-0.1-2.6-0.3-2.7-2.6c0-0.8,0-1.6,0-2.4c0-63.2,0-126.4,0-189.6c0-0.9,0-1.8,0-3c-0.7,1-0.8,1.8-0.9,2.5
						c-5.9,22.9-11.7,45.9-17.6,68.8c-9.1,35.6-18.3,71.1-27.4,106.7c-1.5,5.7-2.9,11.3-4.4,17c-0.7,2.6-0.8,2.7-3.7,2.7
						c-18.3,0-36.6,0-55,0c-2.8,0-2.9-0.1-3.6-2.8c-5.3-20.8-10.6-41.5-15.9-62.3c-7.1-27.8-14.2-55.6-21.3-83.4
						c-4-15.6-8-31.1-12-46.7c-0.1-0.5-0.3-1-0.5-1.5C710.1,758.3,709.9,758.3,709.8,758.4z"/>
					<path class="st0" d="M535.2,838.2c0.2,0.9,0.7,0.9,1.1,1.1c1.1,0.4,2.1,0.8,3.2,1.1c9.8,3.3,17.9,9,24.3,17.2
						c4.6,5.9,9.6,11.6,13.4,18.1c3.1,5.2,5.6,10.8,8.4,16.2c8.3,16,16.5,32,24.7,48c2.1,4.1,4.2,8.1,6.3,12.2
						c0.3,0.5,0.5,1,0.7,1.5c0.4,0.9,0,1.4-0.9,1.5c-0.6,0.1-1.1,0.1-1.7,0.1c-28.9,0-57.8,0-86.6,0c-2,0-3.2-0.7-4.1-2.5
						c-4.7-8.8-9.5-17.6-14.2-26.4c-10.3-19.1-20.6-38.1-31-57.2c-1.9-3.5-4.2-6.8-6.7-10c-4.7-6-11-9-18.3-10.4
						c-3.6-0.7-7.3-0.6-11-0.5c-2,0-2.2,0.2-2.2,2.2c0,0.7,0,1.4,0,2.2c0,32.9,0,65.7,0,98.6c0,3.9,0,3.9-4,3.9
						c-24.9,0-49.8,0-74.6,0c-4,0-4,0-4-3.9c0-85.5,0-171,0-256.5c0-4,0-4,4-4c44.6,0,89.1-0.1,133.7,0.1
						c14.9,0.1,29.9,0.7,44.6,3.6c9.2,1.8,18.2,4.5,26.1,9.7c13.4,8.7,22.3,20.7,26.8,35.9c4.8,16.1,4.9,32.4,0,48.5
						c-5.3,17.4-16.4,30.3-31.8,39.7c-6.5,3.9-13.6,6.4-20.8,8.5C538.8,837.2,537,837.7,535.2,838.2z M440.6,771
						c0,7.6,0,15.2,0,22.8c0,0.6,0,1.3,0,1.9c0,1.2,0.5,1.8,1.7,1.8c0.5,0,1,0,1.4,0c10.2,0,20.5,0,30.7,0c1,0,2.1,0,3.1-0.1
						c6.6-0.8,13.1-2.1,19.6-3.7c3.4-0.8,6.4-2.4,9-4.8c7.3-6.7,8.9-15,7.4-24.3c-0.4-2.7-1.4-5.2-2.8-7.6c-3.2-5.5-8.2-8.4-14.1-10
						c-4.6-1.2-9.3-1.9-14-2c-13.2-0.1-26.4-0.1-39.6-0.1c-0.3,0-0.6,0-1,0c-1.1,0-1.6,0.6-1.6,1.7c0,0.6,0,1.3,0,1.9
						C440.6,756,440.6,763.5,440.6,771z"/>
					<path class="st0" d="M71.7,823.1c0-42.7,0-85.4,0-128.1c0-4.3,0-4.3,4.2-4.3c39.3,0,78.6-0.1,117.8,0.1
						c14.6,0.1,29.1,1.2,43.2,5c15,4,28.4,11.1,40,21.5c11.2,10.1,19.3,22.3,25.4,36c5.5,12.5,8.5,25.8,10.6,39.3
						c2.3,14.9,2.3,29.8,1.7,44.8c-0.5,12.5-1.9,24.9-5,37c-4.1,16-11.5,30.3-22,43c-9.1,10.9-20,19.8-32.9,25.9
						c-6.7,3.2-13.8,5.1-21,6.7c-9,2.1-18.2,3.7-27.4,4.6c-3.3,0.3-6.7,0.6-10.1,0.6c-40.2,0-80.5,0-120.7,0c-3.8,0-3.8,0-3.8-3.9
						C71.7,908.5,71.7,865.8,71.7,823.1z M153.9,822.8c0,4.2,0,8.5,0,12.7c0,18.7,0,37.4,0,56.2c0,2.7,0.1,2.9,2.8,2.9
						c9.9,0,19.8,0.2,29.7-0.5c5.3-0.4,10.7-1,15.9-2.4c7.1-1.9,13-5.6,17.6-11.4c5.1-6.5,8.1-13.9,9.7-21.9
						c2.3-11,2.6-22.2,2.8-33.4c0.1-6.3-0.2-12.6-0.8-18.9c-0.6-7.1-1.7-14.1-3.6-21c-1.7-5.9-3.9-11.5-7.7-16.4
						c-5.4-7.1-12.7-11.3-21.1-13.9c-7.6-2.4-15.5-3.2-23.4-3.3c-6.1-0.1-12.2,0-18.2,0c-3.7,0-3.7,0-3.7,3.7
						C153.9,777.5,153.9,800.1,153.9,822.8z"/>
				</g>
			</g>
			<g>
				<path class="st0" d="M599.1,242c0,0-3.1,1.3-3.1,1.3c-1.6,1-1.9,1.1-2.2,1.3c-1.8,0.8-0.9,0.5-1.8,0.8
					c-8.3,3.3-16.6,6.5-24.9,9.8c-1.8,0.7-2.3,0.5-3.2-1.2c-4.2-8.2-8.6-16.3-12.7-24.5c-4.3-8.5-10-15.7-18.4-20.7
					c-6.1-3.7-11.6-8.4-17.6-12.2c-6.3-4-12.8-7.9-19.9-10.4c-0.5-0.2-0.9-0.3-1.4-0.5c-1.6-0.4-2-0.1-2.4,1.5
					c-0.4,1.7-0.2,3.4,0.6,5.1c0.5,1,0.9,2,1.3,3c1.9,5.7,3.8,11.4,5.6,17.2c2,6.5,5,12.5,7.4,18.8c2.1,5.3,3.5,10.8,3.6,16.5
					c0,2.5,0.1,5,0.3,7.5c0.4,5.1,0.9,10.3,0.6,15.4c-0.2,3.9-0.2,7.7,0.2,11.6c0.2,1.7,0.2,3.5-0.1,5.2c-1,5,0.5,9.4,3.5,13.3
					c1.1,1.5,2.2,2.9,3.3,4.4c0.7,1,0.6,1.3-0.6,1.6c-3.4,1-6.8,2.1-10.4,2c-4.1-0.2-6.5,1.9-7.7,5.6c-0.1,0.3-0.2,0.5-0.3,0.8
					c-1.7,4.9-3.3,9.9-5.2,14.7c-3.2,8.2-5.7,16.7-9,24.9c-2.2,5.4-3.8,10.9-5,16.7c-0.7,3.4-1.6,6.7-2.5,10.1
					c-0.3,1.1-0.8,2-2.1,2.5c-0.1-1.8,0.3-3.4,0.9-4.9c1.5-4.3,3.1-8.6,3.9-13c1.7-9.3,4.3-18.3,7-27.3c0.7-2.3,1.4-4.5,2-6.8
					c0.4-1.4,1-3.7,1.2-5.2c1.2-7,1.9-14.1,3.3-21.1c0.3-1.5,0.7-3,0.8-4.6c0.2-2.2-0.5-3.3-2.6-4c-0.9-0.3-1.7-0.6-2.6-0.8
					c-2.9-0.5-5.6-1.5-8.3-2.6c-1.7-0.7-3.4-1.7-4.8-3.3c1.4-0.5,2.7-0.4,3.9-0.5c8.3-0.2,16.2-2.8,24.2-4.8
					c2.8-0.7,4.9-3.3,4.9-6.2c0-0.8-0.1-1.6-0.2-2.3c-0.5-3.7-1.1-7.4-1.7-11.1c-0.3-2.2-0.8-4.3-1.5-6.4c-2.7-7.6-5.3-15.1-6.8-23
					c-1.3-6.5-2.7-12.9-4.9-19.2c-2.7-7.7-5.1-15.6-7.2-23.5c-1.4-5.3-2.9-10.5-4.3-15.8c-1.2-4.3-3.6-7.5-7.4-10
					c-5.2-3.5-9.9-7.6-13.9-12.4c-2.8-3.4-6.1-6.3-10.4-7.7c-1.3-0.4-2.4-1.3-3.1-2.5c-0.2-0.4-0.6-0.9-0.3-1.4
					c0.4-0.7,1-0.4,1.5-0.3c0.8,0.1,1.5,0.3,2.3,0.4c1.9,0.3,3.6-0.2,4.9-1.5c1.4-1.3,3-2.3,4.7-3.3c2.1-1.3,4.1-2.8,5.8-4.6
					c3.2-3.2,4.8-7.1,4.5-11.7c-0.1-0.8-0.2-1.7,0.1-2.5c0.2-0.8,0.2-2,1.1-2.1c1-0.2,1.3,1,1.7,1.7c1.8,3.3,3.5,6.6,5.2,10
					c1.6,3.1,3.2,6.2,4.9,9.2c1,1.9,2,3.7,2.5,5.8c0.6,2.6,2.4,4.1,5,4.7c1.8,0.4,3.7,0.8,5.5,1.2c2.2,0.5,4.5,0.5,6.8,0.2
					c4-0.5,7.8-0.1,11.7,0.9c4,1,8,1.7,12.2,1.6c4.7-0.1,8.5-1.8,11.3-5.7c0.7-1,1.4-2,2-3c1.5-2.7,3-5.3,5-7.6
					c3.6-4.3,2.6-9,0.5-12.4c-0.5-0.8-1.1-1.7-1.7-2.4c-3.6-4-7.1-8.1-11.3-11.5c-4.5-3.8-8.9-7.7-13.4-11.4
					c-1.9-1.6-3.7-3.3-5.1-5.4c-0.2-0.4-0.7-0.7-0.5-1.3c0.7,0,1.1,0.6,1.6,0.9c1.3,1,2.7,1.8,4.1,2.5c1.5,0.7,3.3,1,4.9,0.7
					c3.5-0.7,4.2-3.5,6.4-4.8c5.5-3.4,11-6.9,15.7-11.3c5.6-5.3,11.5-10.4,17.2-15.6c2.5-2.3,2.5-3.8,0.3-7
					c-0.6-0.9-1.2-1.9-1.7-2.8c-5.2-10.1-12.3-18.8-20.2-27c-3-3-6.3-3.8-10.3-2.3c-2.6,1-5.1,2.2-7.4,3.6
					c-9.2,5.8-17.8,12.4-25.2,20.4c-1.8,2-3.9,3.5-6.4,4.4c-2.8,1-5.1,2.8-7.1,5c-1.6,1.8-1.6,3.7-0.1,5.6c0.2,0.3,0.5,0.6,0.8,0.9
					c3,3.4,6.1,6.8,9.4,9.9c3.4,3.3,6.2,7,10.5,9.3c2.1,1.1,3.8,2.8,5.1,5.3c-1.1-0.1-1.6-0.4-2.2-0.7c-4-1.9-7.6-4.5-10.5-7.9
					c-2.2-2.5-4.5-5-7.2-7c-0.8-0.6-1.5-1.3-2.1-2.1c-2.2-3-5-5.4-8-7.6c-1.9-1.3-3.9-2.6-5.7-4c-1.7-1.2-3.8-1.6-5.8-0.9
					c-4.1,1.3-7.8,3.2-11.4,5.4c-7.3,4.6-13.8,10.2-20.3,15.7c-2.8,2.4-5.5,5-8.6,6.9c-3.4,2.1-6.9,4.2-10.3,6.4
					c-7,4.4-13.8,9-18.2,16.2c-1.3,2.1-3.1,3.5-5.2,4.6c-2.6,1.4-5.1,3.1-7.3,5.2c-1.7,1.7-3.5,3.2-5.4,4.6c-3.1,2.2-4,4.8-3,8.4
					c1.6,5.9,3.1,11.9,4.8,17.9c0.8,2.7,1.9,5,4.1,6.7c1.6,1.3,2.2,3.1,1.9,5.1c-0.1,1-0.3,2-0.3,3c-0.1,1.2,0.2,2.4,1.1,3.4
					c2.7,2.9,3.7,6.4,3.9,10.2c0.1,2.7,0.4,5.3,1,7.9c1.2,5.1,2.5,10.2,3.1,15.4c0.6,4.9,3,8.7,7.4,11c0.2,0.1,0.4,0.2,0.5,0.3
					c1.5,1,1.9,2,1,3.6c-1.3,2.2-1.4,4.6-0.9,7c0.4,1.9,0.8,3.7,1.4,5.6c2.6,8.6,5.1,17.1,6.6,25.9c0.8,4.7,1.6,9.4,3.1,13.9
					c0.5,1.3,0.7,2.8,0.9,4.2c0.6,3.8-0.2,7.3-2.9,10.3c-1.1,1.2-1.9,2.5-2.6,3.9c-2,3.9-4,7.8-6.1,11.7c-2.6,4.9-4.9,9.9-7.9,14.6
					c-1.8,2.9-3.3,5.9-4.6,9.1c-1.4,3.4-2.6,6.9-5,9.8c-1.1,1.3-2,2.7-2.8,4.2c-2.6,4.4-4.7,9.1-7.8,13.2
					c-3.8,5.1-6.5,10.7-8.4,16.8c-1.5,4.7-3,9.5-5.4,13.9c-1.7,3.1-2.7,6.3-3.2,9.8c-0.4,2.7-1,5.3-1.9,7.9c-1.6,4.3-3.1,8.7-4.6,13
					c-0.7,1.9-1.4,3.9-2,5.8c-0.4,1.4-0.2,1.7,1.2,2.3c1.2,0.5,2.4,0.9,3.6,1.3c2.4,0.9,2,0.9,0.9,4.3c-1.5,4.5-3.2,9-4.8,13.5
					c-0.9,2.5-0.7,3-3.7,2c-2.2-0.7-2.6-0.5-3.4,1.8c-1.2,3.3-2.3,6.6-3.5,9.8c-0.9,2.4-0.9,2.4-3.3,1.9c-0.3-0.1-0.7-0.1-1-0.2
					c-2.6-0.5-1.9-0.3-3.7,4.1c-1,2.4-1.8,4.7-2.6,7.2c-2.1,7.2-3.4,6.8,0.9,8.3c12,4.2,24.1,8.5,36.1,12.7c0.8,0.3,2.4,0.5,2.1,1.3
					c-0.5,1.1-1.7,0-2.5-0.3c-10.2-3.5-20.3-7.1-30.5-10.7c-0.6-0.2-1.2-0.4-1.8-0.6c-1.4-0.5-2.2,0.5-2.1,2.9c0.1,2-0.7,3.9-2,5.4
					c-1.5,1.7-1.4,2.9-0.1,3.4c1.1,0.4,2.3,0.8,3.4,1.2c2.9,1,3.4,1.8,4.9-2c0.1-0.1,0.1-0.3,0.2-0.4c0.3-0.7,0.9-0.9,1.6-0.6
					c1.7,0.5,3.4,1.1,4.7,2.6c4.3,5.1,11,7.8,17.3,5.8c1.3-0.4,2.2,0.2,3.2,0.5c1,0.3,1.3,1,0.9,2c-0.5,1.4-1,2.8-1.5,4.2
					c-0.6,1.7-0.6,1.7-2.4,1.7c-1.2,0-2.1,0.3-2.2,2.1c-0.1,1.7-0.6,3.4-1.6,4.9c-1.1,1.6-1,2.7,0.3,3.1c0.8,0.3,1.6,0.5,2.5,0.9
					c3,1.2,3.3,1,2.6,3.1c-0.3,0.8-0.6,1.7-0.9,2.5c-0.7,2-0.9,2.2-2.6,1.7c-1.4-0.4-2.7-0.9-4-1.4c-1.1-0.4-1.9,0-2.2,1.6
					c-0.2,1.2-0.7,2.3-1.2,3.3c-0.6,1.1-0.3,1.9,0.7,2.3c1.2,0.5,2.3,1.1,3.5,1.5c2.4,0.9,2.2,1.4,1.4,3.5c-0.1,0.2-0.2,0.4-0.2,0.6
					c-0.3,1-1,1.4-2,1c-0.9-0.3-1.9-0.6-2.8-1c-3.7-1.3-3.4-1.4-4.7,2.3c-12,34.2-24.1,68.3-36.1,102.5c-0.2,0.6-0.4,1.2-0.6,1.8
					c-0.8,2.1-0.9,2.1-2.9,1.5c-2.5-0.9-5.1-1.8-7.6-2.7c-3.6-1.2-3.2-1.2-2.1-4.5c15.2-43.1,30.4-86.2,45.6-129.3
					c0.3-0.7,0.5-1.5,0.8-2.2c0.4-1.3,0.2-1.7-1-2.1c-4.5-1.6-9.1-3.2-13.6-4.8c-1.4-0.5-1.7-0.3-2.3,1.1c-0.2,0.5-0.4,1.1-0.6,1.6
					c-2.5,7-4.9,14-7.4,21.1c-0.6,1.8-1.3,3.6-1.9,5.4c-0.8,2.3-0.7,2.5,1.5,3.3c1.9,0.7,3.7,1.3,5.6,2c1.8,0.6,2.7,2.5,2.1,4.3
					c-12.1,34.4-24.3,68.8-36.4,103.3c-0.2,0.7-0.5,1.3-0.7,2c-0.5,1.5-0.3,1.8,1.1,2.5c1.2,0.5,2.5,1.1,3.7,1.6c2,0.9,2,1,1.3,3
					c-1.8,5.1-3.6,10.2-5.4,15.2c-1.2,3.5-2.5,7.1-3.7,10.6c-0.7,2.2-0.6,2.5,1.6,3.3c3.1,1.1,6.3,2.2,9.4,3.3c2,0.7,2.3,0.5,3-1.4
					c1.6-4.4,3.1-8.8,4.7-13.2c0.2-0.5,0.4-1.1,0.6-1.6c0.6-1.4,0.8-1.5,2.2-1.1c0.5,0.2,1.1,0.4,1.6,0.6c8.6,3,17.1,6,25.7,9.1
					c1.3,0.4,2.6-0.2,3.1-1.5c1-2.9,2.2-5.7,2.8-8.7c0.6-2.7,2.3-4.5,5-5.3c2.2-0.6,4.4-1.1,6.7-1.2c2.3-0.1,4.5,0.2,6.6,1.4
					c0.6,0.4,1.3,0.6,2,0.7c1,0.2,1.6-0.2,2-1.1c0.8-2.3,1.7-4.7,2.5-7c0.4-1.3,0.2-1.6-1-2.1c-1.4-0.6-2.8-1-4.2-1.5
					c-0.8-0.3-1.8-0.1-2.4,0.5c-1.5,1.6-3.5,2.4-5.5,2.8c-1.8,0.4-3.6,0.7-5.4,1c-0.9,0.2-1.4-0.4-1.2-1.3c0.4-1.4,1-2.8,1.5-4.2
					c0.7-2,0.5-2.3-1.3-3.1c-0.5-0.2-0.9-0.4-1.3-0.6c-1.8-1-1.8-1.1-1.2-3c0-0.1,0.1-0.3,0.1-0.4c3-8.6,6.1-17.2,9.1-25.9
					c0.5-1.3,0.9-2.3,2.6-2.2c0.8,0.1,1.2-0.6,1.5-1.3c0.5-1.3,0.9-2.5,1.4-3.8c0.8-2.2,0.9-2.2,3-1.5c6.5,2.3,13,4.6,19.4,6.9
					c3.9,1.4,4.9,1,6.2-2.8c3.4-9.6,6.7-19.1,10.1-28.7c0.4-1.1,0.6-2.3,0.9-3.5c0.2-0.8-0.1-1.4-0.9-1.7c-0.6-0.3-1.2-0.5-1.8-0.7
					c-6.9-2.4-13.8-4.9-20.7-7.3c-1.8-0.6-2.7-2.6-2.1-4.3c2.7-7.8,5.5-15.5,8.2-23.3c1.2-3.4,0.4-6.3-1.9-8.8
					c-1.9-2.1-2.9-1.8-3.8,0.7c-0.2,0.5-0.4,1.1-0.6,1.6c-3.1,8.9-6.3,17.8-9.4,26.7c-0.2,0.6-0.4,1.2-0.7,1.8
					c-0.3,0.8-0.8,1.1-1.7,0.9c-1.9-0.4-3.7-0.8-5.6-1.2c-0.8-0.2-1.2-0.7-0.9-1.6c0.1-0.3,0.2-0.7,0.3-1
					c4.2-11.8,8.3-23.7,12.5-35.5c0.7-2.1,0.9-2.2,3.1-1.4c3.4,1.2,6.8,2.4,10.2,3.6c3,1.1,3,1.1,4.1-1.9c2.2-6.3,4.5-12.7,6.7-19
					c0.3-0.7,0.5-1.5,1-2.1c0.2-0.3,0.5-0.6,0.9-0.4c0.4,0.1,0.4,0.5,0.5,0.9c0.2,0.9-0.2,1.7-0.5,2.5c-1.8,5.2-3.6,10.4-5.4,15.7
					c-0.7,2-1.1,4.1-0.5,6.3c1.8,6.5,3.5,13,5.8,19.3c1.6,4.1,1.1,7.9-0.8,11.7c-1.2,2.3-2.2,4.7-3.4,7.1c-0.4,0.9-0.3,1.5,0.6,1.9
					c1.4,0.5,2.8,1,4.2,1.5c0.8,0.2,1.4-0.1,1.8-0.8c0.2-0.5,0.4-1,0.6-1.6c1.3-4.6,2.7-9.3,4-13.9c0.3-1,0.3-2.1,0-3.1
					c-0.8-2.5-1.5-5-2.3-7.5c-1.4-4.5-2.7-9-4.1-13.4c-0.5-1.6-0.7-3.2-0.1-4.8c1.4-4,2.3-8.1,4-12c2-4.5,3.5-9.2,4.9-14
					c1.8-6.3,3-6-0.6-7.2c-2.3-0.8-4.7-1.6-7-2.5c-2.7-0.9-2.7-1-1.7-3.6c0-0.1,0-0.1,0.1-0.2c5.6-15.8,11.2-31.7,16.8-47.5
					c0.2-0.5,0.4-1.1,0.6-1.6c0.2-0.6,0.9-0.9,1.5-0.7c0.5,0.2,1.1,0.3,1.6,0.5c4.9,1.7,9.8,3.4,14.6,5.2c2.8,1,2.9,0.9,3.9-1.9
					c2.4-6.7,4.8-13.5,7.1-20.2c0.5-1.5,1.1-2.9,1.6-4.4c0.2-0.6,0.6-1,1.3-0.7c0.6,0.2,0.9,0.7,0.8,1.3c-0.1,0.6-0.3,1.1-0.5,1.6
					c-1.4,3.9-2.7,7.7-4.1,11.6c-0.2,0.7-0.7,1.4-0.3,2.3c0.9-0.3,1-1.1,1.2-1.7c0.7-1.9,1.4-3.9,2.1-5.8c0.6-1.7,0.9-1.8,2.5-1.2
					c0.5,0.2,0.9,0.4,1.3,0.6c1.7,0.7,3.4,1.4,5.1,2.1c0.4,0.2,1.1,0.4,1.2,0.1c0.2-1.1,0.9-0.7,1.5-0.7c0.6,0,0.8-0.5,1-1
					c0.4-1.1,0.8-2.3,1.2-3.4c-0.1,2-1.5,3.7-1.3,6c1-0.4,1-1.2,1.3-1.8c0.5-1.4,1-2.8,1.5-4.2c0.1-0.3,0.3-0.7,0.8-0.6
					c0.3,0.1,0.4,0.4,0.5,0.6c0.2,0.6,0.2,1.2,0,1.8c-0.3,1-0.7,2.1-1,3.1c-1.2,3.4-3.5,5.7-7.1,6.8c-3.3,0.9-6.3,2.4-9.3,4.1
					c-2.5,1.4-4.1,3.4-5,6.2c-0.3,1.1-0.7,2.2-1.1,3.3c-1.2,3-0.9,3.3-2.9,2.7c-0.5-0.1-0.9-0.3-1.4-0.5c-4.2-1.5-8.4-3-12.6-4.4
					c-2.1-0.7-2.4-0.6-3.1,1.5c-1.5,4.1-2.9,8.2-4.3,12.2c-3.2,9-6.4,18-9.5,27.1c-1.1,3-1.1,3.1,1.9,4.1c1.7,0.6,3.5,1.2,5.2,1.8
					c3,1.1,3,1.1,2,4.2c-3.8,10.9-7.7,21.8-11.5,32.7c-0.9,2.5-0.6,2.4,2.6,3.6c2,0.7,4.1,1.5,6.1,2.2c4,1.3,4,1.8,5-0.8
					c0.4-1.1,0.6-2.3,1.5-3.3c1,2,1.2,3.9,1.6,5.7c0.9,5,3.1,8.8,8.6,9.8c1,0.2,1.3,0.7,1,1.7c-0.3,1-0.4,1.9-0.7,2.9
					c-0.3,1,0.1,1.6,1.1,2c1.4,0.5,2.8,1,4.2,1.5c1.6,0.5,2,0.3,2.6-1.2c0.4-1,0.7-2,1.1-3c0.7-1.8,1.4-3.6,1.9-5.5
					c1.7-5.1,2.4-5.1-1.2-6.3c-0.5-0.2-1.1-0.4-1.6-0.6c-2.5-0.8-3.2-1.7-4.5,2c0,0.1-0.1,0.3-0.2,0.4c-0.3,0.7-0.8,0.7-1.3,0.2
					c-1-1-1.8-2.2-2.2-3.6c-1.8-6-3.6-11.9-5.3-17.9c-0.8-2.7-0.6-5.4,0.4-8.1c5.1-14.2,10.1-28.5,15.1-42.7
					c0.4-1.1,0.7-2.2,1.1-3.2c1.2-3,3.1-5.2,6.5-5.8c0.5-0.1,1.1-0.4,1.6-0.6c4.8-2.7,9.7-5.3,14.5-8.1c1.4-0.8,2.6-0.9,4-0.3
					c3.3,1.2,6.7,2.4,10,3.6c2.7,1,2.7,1,2,3.8c-0.1,0.6-0.2,1.1-0.4,1.7c-1.2,3.8-3.2,7.1-6.9,9.1c-1.2,0.7-2.5,0.9-3.8,1.4
					c-3.7,1.4-6.4,3.7-7.8,7.6c-6.3,18.1-12.8,36.2-19.1,54.3c-0.2,0.6-0.5,1.2-0.6,1.8c-0.3,1.3,0.1,2,1.3,2.5
					c1.7,0.7,2.9,0.4,3.5-0.8c0.5-1,0.8-2,1.2-3c0.8-2.2,0.9-2.2,3.1-1.5c1.8,0.6,3.6,1.3,5.4,1.9c1.7,0.6,2,0.4,2.7-1.3
					c0.1-0.3,0.2-0.5,0.3-0.8c5.4-15.3,10.8-30.6,16.2-45.9c0.2-0.5,0.3-0.9,0.5-1.4c0.9-2,2.1-3.9,4.2-4.9c3-1.4,5.7-3.1,8.6-4.6
					c2.2-1.2,4.6-1.1,7.1,0.3c4.3,2.5,9.2,3.8,14,4.9c2.4,0.5,4.1,1.6,4.8,3.7c1.8,5,6.6,6.7,12.4,7.4c2.6,0.3,5.2,1.2,7.2,2.9
					c1.4,1.1,3.1,1.5,4.9,1.9c0.8,0.2,1.6-0.3,1.9-1c0.9-2.6,1.9-5.2,2.8-7.8c0.3-0.7,0.1-1.3-0.8-1.4c-1.3,0-2.3-0.6-3.4-1.1
					c-1.3-0.6-2.7-0.9-3.8,0c-1.3,1.1-2.6,0.9-3.9,0.3c-1.3-0.5-2.7-0.9-4-1.4c-2.5-1-4.1-2.7-4.8-5.3c-0.2-0.7-0.5-1.5-0.8-2.2
					c-1-2.3-2.9-3.7-5.2-4.3c-4.1-1-7.9-2.8-11.9-3.9c-5.6-1.5-10.8-10.7-7.7-16.8c2.4-4.7,3.9-9.9,4.6-15.2
					c0.5-3.7,1.8-7.1,3.6-10.4c1.7-3,3.4-6.1,4.6-9.3c5.2-14.2,9.9-28.7,15.5-42.8c2.8-7.2,5.4-14.5,8.2-21.7
					c0.9-2.2,1.6-4.5,2.5-6.8c1.6-4.2,4.3-7.4,8.5-9.3c1.8-0.8,3.5-1.6,5.2-2.4c1.8-0.8,3.4-2,4.5-3.7c1.4-2.1,3.4-3.6,5.6-4.8
					c1.9-1.1,3.9-2.1,5.8-3.2c4.9-2.7,9.4-5.7,12.7-10.4c6.7-10,13.2-20.1,19.4-30.5c1.2-2.1,1.8-4.3,1.4-6.7
					c-0.3-1.7,0.3-3,1.5-4.2c0.7-0.7,1.4-1.4,2.1-2.1c3.7-3.7,7-7.7,9.1-12.4c0.8-1.8,1.8-3.5,3-5.1c0.6-0.8,1.1-1.7,1.2-2.8
					c0.2-1.8-1.1-3.1-2.9-2.9c-1.5,0.2-3,0.7-4.5,1 M349.9,607.7c-1.5,4.5-3.1,8.9-4.7,13.4c-1.5,4.2-2.9,8.4-4.4,12.6
					c-0.8,2.2-1.1,2.3-3.2,1.6c-2.3-0.8-2.4-1-1.6-3.4c1.8-5,3.5-10,5.3-15c0.2-0.5,0.4-1.1,0.5-1.6c0.4-1,0.1-1.7-0.9-2.3
					c-2.7-1.5-2.7-1.5-1.6-4.5c0.5-1.5,1-2.9,1.6-4.4c0.5-1.4,0.9-1.5,2.3-1.1c1.9,0.6,3.8,1.3,5.6,2
					C350.4,605.6,350.5,605.9,349.9,607.7z M399.4,430.2c-2.8,8.1-5.7,16.2-8.6,24.3c-0.7,2-0.9,2.1-3,1.4
					c-5.6-1.9-11.1-3.9-16.6-5.9c-0.5-0.2-0.9-0.3-1.4-0.5c-2.2-0.7-2.4-0.6-3.1,1.4c-0.8,2.1-1.4,4.1-2.2,6.2
					c-0.6,1.8-0.8,1.8-2.7,1.2c-0.7-0.2-1.5-0.5-2.2-0.8c-1.9-0.7-2-0.9-1.4-2.8c0.4-1.1,0.8-2.3,1.2-3.4c1.6-4.5,3.2-9.1,4.8-13.6
					c1.9-5.3,3.7-10.6,5.6-15.8c0.2-0.6,0.4-1.2,0.6-1.8c0.3-1,0-1.6-1-2c-1.4-0.5-2.8-1-4.2-1.5c-1.5-0.6-1.7-0.8-1.1-2.4
					c2-5.6,4-11.2,5.9-16.8c0.4-1.1,0.9-1.7,2.1-1.6c2.9,0.2,5.3-1.1,7.8-2.5c2.3-1.3,4.7-2.6,7.1-3.9c0.8-0.4,1.2-0.2,1.1,0.8
					c-0.2,1.4-0.3,2.9-1,4.1c-2.4,4.9-3.9,10-5.4,15.2c-0.8,2.6-2,5-2.9,7.5c-0.1,0.4-0.3,0.8-0.4,1.2c-0.3,1.2-0.2,1.6,1,2.2
					c0.6,0.3,1.2,0.5,1.8,0.7c5.5,2,11.1,3.9,16.6,5.9C400.1,427.8,400.2,428,399.4,430.2z M403.4,410.1c1.2-3.4,2.3-6.8,3.6-10.2
					c0.5-1.3,1.8-2.1,2.4-3.4c0.3-0.6,0.8-0.4,1.2,0.1c0.6,0.8,0.4,1.6,0.1,2.4c-0.7,2.1-1.5,4.1-2.2,6.2c0,0,0,0,0,0
					c-0.7,2-1.4,4-2.1,6c-0.4,1.2-0.8,1.3-1.9,0.9C403.3,411.7,403,411.3,403.4,410.1z M429.4,405.7c0.8,2.8-1,5-1.3,6.9
					c-0.8,2.2-1.4,3.8-1.9,5.5c-0.3,1-1,1.3-2,1c-1.3-0.4-2.6-0.6-3.9-1c-1-0.3-1.6,0-2,1c-0.2,0.6-0.4,1.2-0.7,1.8
					c-3.6,10.3-7.3,20.7-10.9,31c-0.2,0.5-0.3,1-0.5,1.4c-0.3,0.7-0.3,1.9-1.1,1.8c-1-0.1-0.8-1.3-1-2.1c-0.2-0.9,0.1-1.7,0.4-2.5
					c4-11.3,7.9-22.6,11.9-33.8c0.8-2.1,0.9-2.2,3.3-1.8c1.9,0.3,2.1,0.2,2.8-1.6c0.4-1.1,0.8-2.1,1.1-3.2c0.4-1.1,0.8-2.2,1.8-3
					c0.9-0.8,1.2-2.2,1.8-3.3c0.2-0.4,0.4-0.9,0.6-1.3c0.3-0.5,0.8-0.5,1.3-0.3c0.5,0.2,0.9,0.5,0.8,1.1
					C429.8,404.1,429.2,405,429.4,405.7z"/>
				<path class="st0" d="M609.7,236.3C609.8,236.3,609.8,236.3,609.7,236.3c5.5-3.4,10.9-6.8,16.5-9.8c4.8-2.5,9.5-5,14.3-7.5
					c1-0.5,1.9-1.2,2.8-1.9c2.9-2.7,5.1-7.8,1.8-12.5c-0.5-0.6-0.7-1.4-1-2.1c-2.7-7.4-5.5-14.7-8.2-22.1c-0.4-1.1-0.9-2.2-1.6-3.2
					c-1.8-2.3-3.8-2.9-6.5-1.8c-1.5,0.6-2.8,1.4-4.1,2.3c-6.6,4.6-13.3,9.2-20.5,12.9c-5.7,3-11.4,6-16.8,9.5
					c-9,5.7-18.1,11.2-27.2,16.6c-1.6,1-3.4,1.7-4.9,2.9c-1.8,1.5-2.3,3.1-1.6,5.3c0.2,0.5,0.4,1.1,0.7,1.6
					c3.1,6.5,6.2,12.9,9.3,19.4c0.2,0.5,0.5,1,0.8,1.5c1.9,2.9,4.4,3.8,7.7,2.7c0.8-0.3,1.6-0.5,2.4-0.9c5.1-2.6,10.7-3.7,16-5.7
					c0.9-0.3,1.8-0.5,2.7-0.6"/>
				<path class="st0" d="M548,216.3c-1.1-0.4-2-1.1-2.6-2.1c-2-3-4.6-5.4-7.4-7.6c-5-3.8-9.3-8.3-13.3-13.1c-1.7-2-3.4-4-5.1-6
					c-1.9-2.4-1.8-4.3,0.7-6.2c3.4-2.5,6.9-5,10.4-7.4c10.1-6.9,19.5-14.6,28.6-22.7c5.8-5.1,11.7-10.1,18.1-14.4
					c5.4-3.6,10.2-8.1,15.1-12.4c1.5-1.3,3-2.7,4.5-3.9c2.3-1.8,3.9-1.7,6,0.2c4.8,4.3,8.9,9.1,12.2,14.6
					c3.7,6.2,7.4,12.4,11.2,18.6c1.6,2.6,2.2,5.5,2.8,8.4c0.2,1-0.3,1.6-0.9,2.3c-1.9,1.9-3.7,4-5.7,5.7
					c-6.1,5.4-12.3,10.7-19.4,14.8c-13.7,7.9-26.7,16.9-40.1,25.3c-3.7,2.3-7.5,4.2-11.6,5.7C550.5,216.7,549.2,216.8,548,216.3z"/>
				<path class="st0" d="M552.2,130.6c0.5-2,0.4-3.7-0.8-5.2c-0.7-0.9-1.5-1.7-2.3-2.5c-4.7-4.9-9.5-9.7-14.2-14.6
					c-1-1.1-2.2-2-3.5-2.7c-3.9-1.9-3.6-5.9-1.3-8.3c0.5-0.5,1-1,1.6-1.4c9-6.6,17.2-14.1,25.6-21.3c1.8-1.6,3.7-3.1,5.6-4.6
					c1.4-1.2,3-1.8,4.9-1.6c0.7,0.1,1.4-0.2,2.1-0.4c2.2-0.6,4.3-0.3,5.9,1.3c6.5,6.6,13.6,12.7,18.7,20.5c2.9,4.4,5.6,8.9,8.4,13.3
					c0.6,0.9,0.9,1.9,1.2,2.9c0.3,1.1,0.2,2.1-0.4,3c-4.5,7.7-10.1,14.4-18,18.9c-1.9,1.1-3.6,2.6-5.2,4c-2.3,2-4.7,3.9-7.3,5.5
					c-2.5,1.6-4.9,3.4-7.3,5.1c-2.8,2-5.8,3.6-9.1,4.4c-1.4,0.3-2.6,1.1-3.9,1.7c-2.2,1.1-4.6,2-7,2.4c-1.3,0.3-2.8,0.6-3.7-0.8
					c-0.8-1.3-0.1-2.5,0.6-3.6c2.6-4.4,5.2-8.8,7.8-13.2C551.1,132.6,551.7,131.5,552.2,130.6z"/>
				<path class="st0" d="M407.2,592.3c1.9-5.5,3.3-9.5,4.8-13.5c0.9-2.4,1.1-2.6,3.6-1.7c4.1,1.4,3.7,0.9,4.9-2.4
					c2.9-8.1,5.7-16.2,8.5-24.2c0.2-0.6,0.4-1.2,0.7-1.8c0.5-1.2,0.8-1.4,2.1-1c2.9,1,5.7,2,8.6,3c1,0.3,1.3,1,1,2
					c-0.8,2.3-1.6,4.5-2.4,6.8c-0.3,0.9-1,1.3-2,1c-0.1,0-0.1,0-0.2,0c-3.2-0.5-3.3-0.5-4.3,2.5c-1,2.9-2,5.7-3,8.6
					c-0.6,1.8-0.6,1.9,0.9,3c0.9,0.6,1.2,1.3,0.8,2.4c-0.2,0.6-0.4,1.2-0.6,1.8c-2.8,7.8-5.5,15.6-8.3,23.4c-0.7,2-0.7,2.1,1,3.3
					c1,0.7,1.4,1.5,0.9,2.7c-1.1,3.1-2.1,6.2-3.3,9.2c-0.8,2.2-2.2,2.9-4.4,2.1c-4.6-1.6-9.1-3.2-13.6-4.8c-2.2-0.8-2.6-1.8-1.9-3.9
					C403.3,604.1,405.2,597.3,407.2,592.3z"/>
				<path class="st0" d="M529.1,163.4c-1.4,3.1-4,5.6-8,5.7c-3.9,0.1-6.4,2.2-9,4.6c-1,1-2,2-3,3c-2,2-4.5,3.1-7.4,3.4
					c-1.4,0.1-2.4-0.2-3.3-1.3c-3.7-4.4-7.5-8.6-11.3-13c-1.2-1.3-2.3-2.7-3.4-4.1c-0.4-0.6-0.8-1.2-1.1-1.8c-0.6-1.5,0-2.6,1.5-3.1
					c0.2-0.1,0.4-0.1,0.6-0.1c6.2-0.3,12.4-1,18.7-0.5c3.3,0.3,6.5,0.8,9.6,1.7c2.5,0.8,5,0.8,7.6,1c1.7,0.1,3.4,0.2,5.1,0.3
					c0.6,0,1.1,0.1,1.7,0.3C529.8,160,530.1,160.7,529.1,163.4z"/>
				<path class="st0" d="M431.8,624.5c0.5-1.4,0.9-2.8,1.5-4.2c0.6-1.4,0.8-1.6,2.2-1.1c2.1,0.7,4.3,1.5,6.4,2.3
					c1.3,0.5,1.5,0.8,1,2.3c-0.9,2.6-1.7,5.2-2.8,7.8c-1.6,3.9-5.3,4.7-8.6,2c-1.5-1.2-1.8-2.8-1.3-4.6
					C430.7,627.5,431.3,626,431.8,624.5C431.8,624.5,431.8,624.5,431.8,624.5z"/>
				<path class="st0" d="M445.8,541.4c0.7-1.9,1.3-3.9,2.1-5.8c0.6-1.5,0.9-1.7,2.4-1.3c1,0.3,2,0.7,3,1.1c1.4,0.6,1.6,1,1.1,2.5
					c-0.6,1.8-1.2,3.6-1.9,5.4c-0.7,2.1-1.4,4.2-2.2,6.2c-0.7,1.9-1,2-2.8,1.4c-5.1-1.8-4.5-1.3-2.9-5.7
					C444.9,543.9,445.3,542.7,445.8,541.4C445.8,541.4,445.8,541.4,445.8,541.4z"/>
				<path class="st0" d="M397.7,621.1c3.8-1.4,15.8,2.8,18.6,6.3c-0.2,0.5-0.6,0.4-0.9,0.2c-5.6-2-11.2-3.9-16.8-5.9
					C398.4,621.7,398.2,621.5,397.7,621.1z"/>
				<path class="st0" d="M418.2,451.1c0,1.9-5.5,18.3-9.1,27.4c-0.2,0.5-0.2,1.1-0.9,1.3c-0.5-0.3-0.3-0.8-0.2-1.1
					C409.2,474.1,417.1,452.6,418.2,451.1z"/>
				<path class="st0" d="M407.3,517.6c2.6-8.5,5.6-16.9,8.6-25.2c0.1-0.4,0.3-0.8,0.8-0.8C416.7,493.3,408.6,516.2,407.3,517.6z"/>
				<path class="st0" d="M408.8,468.1c0.4,1.9-0.2,3.1-0.5,4.4c-0.5,2.1-1.3,4.2-2,6.2c-0.2,0.6-0.7,0.9-1.3,0.7
					c-0.7-0.2-0.7-0.8-0.5-1.4C405.8,474.9,406.8,471.6,408.8,468.1z"/>
				<path class="st0" d="M380.6,447.2c-2.9-1-5.9-2-8.8-3.1c-1.7-0.6-1.8-0.9-1.3-2.7c0.4-1.2,0.9-2.4,1.3-3.6
					c0.3-0.9,0.9-1.2,1.8-0.9c0.3,0.1,0.5,0.2,0.8,0.3c5.7,2,11.3,4,17,6c2.1,0.8,2.2,0.9,1.5,3.1c-0.3,1-0.7,2-1.1,3
					c-0.6,1.4-0.9,1.5-2.3,1.1c-2.1-0.7-4.1-1.4-6.2-2.2C382.5,447.9,381.6,447.5,380.6,447.2C380.6,447.2,380.6,447.2,380.6,447.2z
					"/>
				<path class="st0" d="M384.3,435.9c-2.8-1-5.6-2-8.4-3c-1.9-0.7-2-0.9-1.4-2.8c0.3-1,0.7-2,1.1-3c0.3-1,1-1.3,2-1
					c1.2,0.4,2.4,0.8,3.6,1.2c4.7,1.6,9.4,3.3,14,4.9c2.1,0.8,2.2,1,1.5,3.1c-0.3,0.9-0.6,1.7-0.9,2.6c-0.6,1.4-0.8,1.5-2.3,1.1
					c-2.4-0.8-4.7-1.6-7-2.4C385.8,436.4,385.1,436.2,384.3,435.9z"/>
			</g>
		</g>
	</g>
</g>
<g>
</g>
<g>
</g>
<g>
</g>
<g>
</g>
<g>
</g>
<g>
</g>
<g>
</g>
<g>
</g>
<g>
</g>
<g>
</g>
<g>
</g>
<g>
</g>
<g>
</g>
<g>
</g>
<g>
</g>
</svg>
